<?xml version="1.0" encoding="UTF-8" standalone="no"?>
<svg width="27px" height="30px" viewBox="0 0 27 30" version="1.1" xmlns="http://www.w3.org/2000/svg" xmlns:xlink="http://www.w3.org/1999/xlink">
    <!-- Generator: Sketch 3.8.3 (29802) - http://www.bohemiancoding.com/sketch -->
    <title>Shape</title>
    <desc>Created with Sketch.</desc>
    <defs></defs>
    <g id="Page-1" stroke="none" stroke-width="1" fill="none" fill-rule="evenodd">
        <g id="Desktop" transform="translate(-50.000000, -31.000000)" fill="#FFFFFF">
            <path d="M70.8400725,55.2693135 L67.8939954,45.9995532 L75.6058987,40.2720838 L66.0731973,40.2720838 L63.1269454,31.002681 L63.1260711,31.0001787 L72.6601712,31.0001787 L75.6071226,40.2711902 L75.6072974,40.2710114 L75.6097452,40.2695816 C77.3210926,45.6479872 75.5585167,51.7652712 70.8400725,55.2693135 L70.8400725,55.2693135 L70.8400725,55.2693135 Z M55.4131188,55.2693135 L55.410671,55.2711008 L63.1244976,61 L70.8400725,55.2694922 L63.1269454,49.5404143 L55.4131188,55.2693135 L55.4131188,55.2693135 Z M50.6453694,40.2697603 L50.6453694,40.2697603 C48.8438039,45.9393205 50.9350815,51.946863 55.4115452,55.2703859 L55.4122446,55.2675262 L58.3586714,45.998302 L50.6485165,40.2719051 L60.178945,40.2719051 L63.1253718,31.0025022 L63.1260711,31 L53.5914465,31 L50.6453694,40.2697603 L50.6453694,40.2697603 Z" id="Shape"></path>
        </g>
    </g>
</svg>